<svg width="18" height="18" viewBox="0 0 18 18" fill="none" xmlns="http://www.w3.org/2000/svg">
<path id="Vector" d="M7.01399 17.1455L6.67967 14.4709C6.49857 14.4012 6.32778 14.3177 6.16731 14.2202C6.00683 14.1226 5.85025 14.0182 5.69758 13.9067L3.21101 14.9515L0.9125 10.9813L3.06474 9.3515C3.05081 9.25398 3.04384 9.15981 3.04384 9.06899V8.50565C3.04384 8.41482 3.05081 8.32065 3.06474 8.22314L0.9125 6.59329L3.21101 2.62314L5.69758 3.66791C5.85081 3.55647 6.01101 3.45199 6.17817 3.35448C6.34534 3.25697 6.5125 3.17339 6.67967 3.10373L7.01399 0.429108H11.611L11.9453 3.10373C12.1264 3.17339 12.2972 3.25697 12.4577 3.35448C12.6182 3.45199 12.7747 3.55647 12.9274 3.66791L15.414 2.62314L17.7125 6.59329L15.5603 8.22314C15.5742 8.32065 15.5812 8.41482 15.5812 8.50565V9.06899C15.5812 9.15981 15.5672 9.25398 15.5394 9.3515L17.6916 10.9813L15.3931 14.9515L12.9274 13.9067C12.7742 14.0182 12.614 14.1226 12.4468 14.2202C12.2797 14.3177 12.1125 14.4012 11.9453 14.4709L11.611 17.1455H7.01399ZM9.35429 11.7127C10.1623 11.7127 10.8518 11.4271 11.4229 10.856C11.9941 10.2848 12.2797 9.59528 12.2797 8.78732C12.2797 7.97936 11.9941 7.2898 11.4229 6.71866C10.8518 6.14752 10.1623 5.86194 9.35429 5.86194C8.5324 5.86194 7.83923 6.14752 7.27477 6.71866C6.71031 7.2898 6.42836 7.97936 6.42892 8.78732C6.42892 9.59528 6.71087 10.2848 7.27477 10.856C7.83867 11.4271 8.53184 11.7127 9.35429 11.7127Z" fill="#50555C"/>
</svg>
